HIERARCHY
ROOT Hips
{
	OFFSET -0.001795 -0.223333 0.028219
	CHANNELS 6 Xposition Yposition Zposition Zrotation Yrotation Xrotation 
	JOINT LeftUpLeg
	{
		OFFSET 0.069520 -0.091406 -0.006815
		CHANNELS 3 Zrotation Yrotation Xrotation
		JOINT LeftLeg
		{
			OFFSET 0.034277 -0.375199 -0.004496
			CHANNELS 3 Zrotation Yrotation Xrotation
			JOINT LeftFoot
			{
				OFFSET -0.013596 -0.397961 -0.043693
				CHANNELS 3 Zrotation Yrotation Xrotation
				JOINT LeftToe
				{
					OFFSET 0.026358 -0.055791 0.119288
					CHANNELS 3 Zrotation Yrotation Xrotation
					End Site
					{
						OFFSET 0.000000 0.000000 0.000000
					}
				}
			}
		}
	}
	JOINT RightUpLeg
	{
		OFFSET -0.067670 -0.090522 -0.004320
		CHANNELS 3 Zrotation Yrotation Xrotation
		JOINT RightLeg
		{
			OFFSET -0.038290 -0.382569 -0.008850
			CHANNELS 3 Zrotation Yrotation Xrotation
			JOINT RightFoot
			{
				OFFSET 0.015774 -0.398415 -0.042312
				CHANNELS 3 Zrotation Yrotation Xrotation
				JOINT RightToe
				{
					OFFSET -0.025372 -0.048144 0.123348
					CHANNELS 3 Zrotation Yrotation Xrotation
					End Site
					{
						OFFSET 0.000000 0.000000 0.000000
					}
				}
			}
		}
	}
	JOINT Spine
	{
		OFFSET -0.002533 0.108963 -0.026696
		CHANNELS 3 Zrotation Yrotation Xrotation
		JOINT Spine1
		{
			OFFSET 0.005487 0.135180 0.001092
			CHANNELS 3 Zrotation Yrotation Xrotation
			JOINT Spine2
			{
				OFFSET 0.001457 0.052922 0.025425
				CHANNELS 3 Zrotation Yrotation Xrotation
				JOINT Neck
				{
					OFFSET -0.002778 0.213870 -0.042857
					CHANNELS 3 Zrotation Yrotation Xrotation
					JOINT Head
					{
						OFFSET 0.005152 0.064970 0.051349
						CHANNELS 3 Zrotation Yrotation Xrotation
						End Site
						{
							OFFSET 0.000000 0.000000 0.000000
						}
					}
				}
				JOINT LeftShoulder
				{
					OFFSET 0.078845 0.121749 -0.034090
					CHANNELS 3 Zrotation Yrotation Xrotation
					JOINT LeftArm
					{
						OFFSET 0.090977 0.030469 -0.008868
						CHANNELS 3 Zrotation Yrotation Xrotation
						JOINT LeftForeArm
						{
							OFFSET 0.259612 -0.012772 -0.027456
							CHANNELS 3 Zrotation Yrotation Xrotation
							JOINT LeftHand
							{
								OFFSET 0.249234 0.008986 -0.001171
								CHANNELS 3 Zrotation Yrotation Xrotation
								End Site
								{
									OFFSET 0.000000 0.000000 0.000000
								}
							}
						}
					}
				}
				JOINT RightShoulder
				{
					OFFSET -0.081759 0.118833 -0.038615
					CHANNELS 3 Zrotation Yrotation Xrotation
					JOINT RightArm
					{
						OFFSET -0.096012 0.032551 -0.009143
						CHANNELS 3 Zrotation Yrotation Xrotation
						JOINT RightForeArm
						{
							OFFSET -0.253742 -0.013329 -0.021401
							CHANNELS 3 Zrotation Yrotation Xrotation
							JOINT RightHand
							{
								OFFSET -0.255298 0.007772 -0.005559
								CHANNELS 3 Zrotation Yrotation Xrotation
								End Site
								{
									OFFSET 0.000000 0.000000 0.000000
								}
							}
						}
					}
				}
			}
		}
	}
}
MOTION
Frames: 16
Frame Time: 0.050000
0.000000 0.951922 0.000000 -0.583983 9.000388 4.450321 0.541120 0.202613 2.873887 0.579841 0.206732 -7.650125 -4.894651 -2.010579 12.573380 0.000000 0.000000 0.000000 1.625312 0.070979 -0.800873 1.088157 -0.222912 -3.037345 2.682097 3.310257 7.649556 0.000000 0.000000 0.000000 4.333949 0.106401 -3.043445 0.890985 -0.274920 -2.436239 -4.246416 2.855519 5.941323 7.106653 -2.141459 -17.140689 0.000000 0.000000 0.000000 -10.291024 -3.046569 -0.777827 -4.591884 0.701178 -0.402504 19.004257 1.659747 0.055031 0.000000 0.000000 0.000000 7.576517 0.473207 0.357587 4.948523 -7.951434 -0.389900 -15.488760 7.931071 -0.303962 0.000000 0.000000 0.000000 
-0.000395 0.951184 0.001971 -0.966109 9.127365 5.006391 0.752678 0.201529 3.066190 1.038216 0.233699 -8.982985 -4.947034 -2.027556 12.676737 0.000000 0.000000 0.000000 1.706761 0.044090 -0.594560 2.557271 -0.405171 -4.807145 1.962882 1.327210 8.787745 0.000000 0.000000 0.000000 5.023979 0.124809 -3.483326 0.459027 -0.216557 -0.285311 -4.414037 3.574227 3.249268 7.185697 -1.803379 -18.566743 0.000000 0.000000 0.000000 -8.846370 -5.577110 0.345501 -5.853480 1.644556 -0.488237 18.946528 4.024617 0.343742 0.000000 0.000000 0.000000 7.702397 -1.974554 -0.697091 4.731729 -8.016264 -0.325321 -14.242739 11.369454 -0.531835 0.000000 0.000000 0.000000 
-0.001556 0.950352 0.003373 -1.064419 7.998076 5.158790 1.368159 0.152628 2.881224 0.021641 0.245944 -8.576169 -4.312380 -1.319587 12.342454 0.000000 0.000000 0.000000 1.840984 0.059511 -0.784832 3.218355 -0.456032 -4.996057 1.519132 0.210729 8.897241 0.000000 0.000000 0.000000 5.389745 0.173486 -4.083907 -0.453567 0.296594 -2.009142 -3.526892 4.539671 5.274303 7.293870 -1.915422 -18.339871 0.000000 0.000000 0.000000 -8.813348 -5.947981 0.503752 -5.871081 0.526085 -0.494263 20.786606 5.895743 0.629413 0.000000 0.000000 0.000000 7.991676 -0.366561 0.083559 6.137988 -8.525004 -0.597134 -15.656701 10.079456 -0.494236 0.000000 0.000000 0.000000 
-0.003361 0.949694 0.004338 -1.094966 9.199485 5.148513 1.766799 0.130678 3.075052 -0.108777 0.249237 -9.086701 -4.900544 -2.130797 12.357560 0.000000 0.000000 0.000000 2.124258 0.016293 -0.431807 3.246237 -0.475529 -5.451886 1.023813 -0.670980 8.833905 0.000000 0.000000 0.000000 4.645663 0.187245 -4.400470 0.034262 0.043275 -1.312557 -3.274306 4.149412 4.984287 7.149840 -1.728608 -18.783603 0.000000 0.000000 0.000000 -10.613450 -7.067689 0.646205 -5.957200 1.601565 -0.497720 21.847797 5.251890 0.577143 0.000000 0.000000 0.000000 9.002498 0.290460 0.421469 5.011603 -9.920460 -0.336351 -14.517927 9.823756 -0.428450 0.000000 0.000000 0.000000 
-0.005785 0.949203 0.004545 -1.008181 9.451659 5.057831 2.026559 0.121463 3.257764 -0.389955 0.252375 -9.278950 -5.032958 -2.315461 12.366611 0.000000 0.000000 0.000000 2.234185 -0.015783 -0.181692 3.228121 -0.480560 -5.693430 0.914136 -0.835770 8.713354 0.000000 0.000000 0.000000 3.915591 0.167216 -4.153628 0.530042 -0.149625 -1.831248 -3.312888 4.241340 5.002954 6.949446 -1.655162 -18.364301 0.000000 0.000000 0.000000 -10.939788 -6.562471 0.334870 -6.703226 1.643421 -0.565012 22.674096 2.565769 0.151543 0.000000 0.000000 0.000000 8.992521 0.581533 0.581674 6.712145 -10.168683 -0.678433 -14.932739 10.687436 -0.516452 0.000000 0.000000 0.000000 
-0.008508 0.948602 0.004143 -0.832336 9.863229 4.945089 1.586991 0.131535 2.943380 0.458556 0.228702 -8.643393 -5.102207 -2.585147 11.971517 0.000000 0.000000 0.000000 2.200938 -0.029419 -0.050602 3.350422 -0.494223 -5.717255 0.710886 -1.150727 8.479697 0.000000 0.000000 0.000000 3.107065 0.149911 -3.927335 0.925281 -0.410129 -0.648012 -2.795129 3.910261 4.112235 6.488464 -1.355517 -18.648367 0.000000 0.000000 0.000000 -12.211263 -6.552506 0.140431 -8.261519 1.788615 -0.707729 23.329968 1.120096 -0.073451 0.000000 0.000000 0.000000 9.253166 1.708629 1.071168 7.987896 -10.045305 -0.930214 -14.820231 10.144389 -0.462990 0.000000 0.000000 0.000000 
-0.011495 0.948390 0.003271 -0.557267 9.610027 4.953873 1.632083 0.111893 2.649800 0.120707 0.225324 -8.152918 -4.970220 -2.432291 11.913785 0.000000 0.000000 0.000000 2.297579 0.008810 -0.377783 2.934966 -0.449064 -5.230513 0.707444 -1.065316 8.097740 0.000000 0.000000 0.000000 2.614928 0.125701 -3.485666 1.171391 -0.505220 -0.919161 -3.128646 4.617748 4.474286 6.657868 -1.351434 -18.850365 0.000000 0.000000 0.000000 -12.962109 -6.749023 -0.016053 -9.221017 1.686659 -0.780780 23.353947 0.682259 -0.171368 0.000000 0.000000 0.000000 10.387039 1.775602 1.252944 8.814856 -10.087966 -1.109700 -13.618295 9.894614 -0.376216 0.000000 0.000000 0.000000 
-0.014498 0.948709 0.002306 -0.357165 9.442488 4.913469 1.631919 0.105716 2.532159 0.027672 0.223725 -7.939751 -4.932490 -2.300218 12.080124 0.000000 0.000000 0.000000 2.507210 0.023551 -0.530121 2.472579 -0.404157 -4.996861 0.727819 -1.008285 8.003122 0.000000 0.000000 0.000000 2.488548 0.107503 -3.120986 1.076999 -0.506372 -0.297166 -2.919996 4.696735 4.196605 6.263348 -1.187968 -18.489076 0.000000 0.000000 0.000000 -14.742111 -6.405274 -0.467206 -10.483825 1.699508 -0.894437 23.454836 0.847225 -0.126480 0.000000 0.000000 0.000000 11.365538 2.238382 1.515749 10.039866 -9.944062 -1.355153 -13.245078 9.433612 -0.326117 0.000000 0.000000 0.000000 
-0.017437 0.949235 0.001403 -0.103344 9.105497 4.804498 1.623880 0.098297 2.371835 -0.198568 0.220961 -7.458394 -4.818173 -2.063836 12.249847 0.000000 0.000000 0.000000 2.625821 0.007875 -0.434662 2.028220 -0.367355 -5.058861 0.861454 -0.776296 8.057058 0.000000 0.000000 0.000000 2.103775 0.080603 -2.542746 1.343113 -0.640178 -0.178197 -3.183517 5.083982 4.581039 6.071861 -0.987072 -18.888939 0.000000 0.000000 0.000000 -16.020134 -6.737164 -0.586540 -12.142996 2.628346 -1.105250 22.967680 1.898097 0.054218 0.000000 0.000000 0.000000 12.512298 2.663521 1.853186 11.540955 -9.750933 -1.669059 -12.301180 8.785810 -0.238841 0.000000 0.000000 0.000000 
-0.020046 0.949742 0.000770 -0.094281 8.838676 4.637148 2.073457 0.081322 2.520252 -0.781047 0.236696 -7.455537 -4.768627 -1.877640 12.520989 0.000000 0.000000 0.000000 3.108024 -0.040801 -0.144573 1.386411 -0.325530 -5.390117 1.006106 -0.562877 8.264505 0.000000 0.000000 0.000000 2.360050 0.050184 -1.963590 1.231994 -0.605587 0.074857 -3.219486 4.950472 4.692758 5.442538 -0.639450 -18.999757 0.000000 0.000000 0.000000 -17.728755 -6.608271 -0.873084 -13.796676 4.020561 -1.396485 21.906943 2.015525 0.097177 0.000000 0.000000 0.000000 13.814042 3.002779 2.070602 13.645841 -9.648401 -2.089490 -11.774481 8.439487 -0.201310 0.000000 0.000000 0.000000 
-0.022064 0.949025 0.000488 0.079312 8.045166 4.611766 2.285828 0.064397 2.369996 -1.446481 0.253504 -6.973516 -4.341538 -1.395463 12.310028 0.000000 0.000000 0.000000 3.259732 -0.054367 -0.104259 0.870229 -0.287256 -5.471229 1.273757 0.030317 7.951518 0.000000 0.000000 0.000000 2.488454 0.028310 -1.569680 1.190852 -0.628041 0.700442 -3.575774 4.984909 4.529073 5.013426 -0.396792 -19.229312 0.000000 0.000000 0.000000 -19.422925 -6.793714 -0.982327 -15.406240 6.259093 -1.797376 20.577455 1.609098 0.060703 0.000000 0.000000 0.000000 15.055504 3.709418 2.461454 16.339809 -9.478417 -2.605501 -10.733485 8.687577 -0.183397 0.000000 0.000000 0.000000 
-0.023292 0.948186 0.000615 0.084581 7.163155 4.386961 2.551361 0.067604 2.574391 -1.990309 0.273940 -6.691543 -3.859743 -0.858705 12.024067 0.000000 0.000000 0.000000 3.713978 -0.068534 -0.111311 0.034527 -0.207741 -5.066069 1.516139 0.655271 7.434193 0.000000 0.000000 0.000000 3.000403 -0.013410 -0.950902 1.165843 -0.663853 1.466320 -3.770222 5.161237 3.939785 5.124457 -0.412989 -19.711264 0.000000 0.000000 0.000000 -21.787582 -7.284573 -1.057526 -17.234161 8.636595 -2.285751 19.228771 0.521398 -0.060545 0.000000 0.000000 0.000000 17.847583 3.910430 2.705296 18.314226 -9.278900 -2.982457 -10.116248 9.428245 -0.206913 0.000000 0.000000 0.000000 
-0.023605 0.946381 0.001430 0.163234 5.776393 4.305045 2.475395 0.105474 2.943824 -2.301702 0.296359 -6.751894 -3.093595 0.002999 11.530102 0.000000 0.000000 0.000000 3.760081 -0.083766 -0.068214 -0.398267 -0.170703 -4.945887 1.949352 1.756321 6.721838 0.000000 0.000000 0.000000 3.405304 -0.053997 -0.420493 1.449958 -0.864815 2.534906 -4.439533 5.478237 3.123404 5.504260 -0.623898 -19.878030 0.000000 0.000000 0.000000 -24.105554 -7.865151 -1.048695 -19.434782 10.849299 -2.882410 18.480499 -0.961456 -0.228565 0.000000 0.000000 0.000000 19.975751 4.803699 3.282583 21.394753 -9.115842 -3.540970 -9.580354 11.044845 -0.263297 0.000000 0.000000 0.000000 
-0.023108 0.945175 0.003139 0.157586 4.344387 4.013936 2.217249 0.157082 3.314571 -2.232675 0.301517 -6.319117 -2.285408 0.946917 10.992294 0.000000 0.000000 0.000000 3.763642 -0.111743 0.089703 -0.701463 -0.130453 -4.537892 2.409571 2.922536 6.116658 0.000000 0.000000 0.000000 4.301403 -0.106924 0.084615 1.263415 -0.801336 3.312379 -4.584574 4.999061 2.674841 5.781081 -0.834011 -20.356137 0.000000 0.000000 0.000000 -26.434199 -8.194502 -0.771767 -22.725716 12.734714 -3.806907 18.115244 -2.895293 -0.437466 0.000000 0.000000 0.000000 21.911292 5.324537 3.379026 24.042010 -8.200889 -3.871055 -8.277351 13.015221 -0.262007 0.000000 0.000000 0.000000 
-0.022057 0.944129 0.006249 0.015818 2.302994 3.829883 1.749431 0.230532 3.745434 -1.768183 0.288077 -5.935584 -1.166564 2.402632 10.496051 0.000000 0.000000 0.000000 3.666332 -0.177516 0.521582 -0.748715 -0.138601 -4.738753 3.222453 4.688980 5.881460 0.000000 0.000000 0.000000 5.263248 -0.155552 0.443317 1.416989 -0.884237 3.971497 -4.957336 4.912312 1.946041 5.857528 -0.990962 -20.249864 0.000000 0.000000 0.000000 -28.647408 -8.753539 -0.341084 -26.167413 14.406394 -4.823282 17.620957 -4.525975 -0.599005 0.000000 0.000000 0.000000 23.559689 5.842361 3.465890 27.543788 -7.442628 -4.298713 -7.127839 16.116915 -0.246664 0.000000 0.000000 0.000000 
-0.020844 0.944241 0.010883 0.021857 -0.064823 3.704535 1.221664 0.242134 3.318581 -1.331641 0.214258 -3.138977 -0.374611 2.773452 8.479222 0.000000 0.000000 0.000000 3.201860 -0.208783 0.809446 -0.545492 -0.148992 -4.654087 4.219601 6.696545 5.937090 0.000000 0.000000 0.000000 6.280285 -0.168662 0.390616 0.960799 -0.620757 4.381130 -4.903484 4.202128 2.058488 6.005858 -1.184904 -20.945972 0.000000 0.000000 0.000000 -30.837831 -8.935833 0.384894 -30.271565 15.347832 -6.091067 17.037855 -6.855811 -0.806698 0.000000 0.000000 0.000000 25.713906 6.486556 3.326938 30.340354 -7.167760 -4.626399 -5.202420 19.587165 -0.076155 0.000000 0.000000 0.000000 
